# xmcd
#
# Track frame offsets: 
#        150
#        17944
#        40029
#        67189
#        89570
#        117289
#        140989
#        155464
#        177387
#        195992
#        221597
#        246864
#        270789
#        283858
#
# Disc length: 4109 seconds
#
# Revision: 0
# Processed by: cddbd v1.5.2PL0 Copyright (c) Steve Scherf et al.
# Submitted via: ExactAudioCopy v0.99pb3
#
DISCID=d2100b0e
DTITLE=One More Voice - Still Alive
DYEAR=2009
DGENRE=Gospel
TTITLE0=Still alive
TTITLE1=Holding on
TTITLE2=Kumbaya
TTITLE3=Rejoice
TTITLE4=He's calling you
TTITLE5=When God's children
TTITLE6=I came to Jesus
TTITLE7=Dieu tout puissant
TTITLE8=Trading my sorrows
TTITLE9=Le Lord shall reign
TTITLE10=Brighter day
TTITLE11=Take my life
TTITLE12=Deep River
TTITLE13=Happy day
EXTD=
EXTT0=
EXTT1=
EXTT2=
EXTT3=
EXTT4=
EXTT5=
EXTT6=
EXTT7=
EXTT8=
EXTT9=
EXTT10=
EXTT11=
EXTT12=
EXTT13=
PLAYORDER=
